# xmcd CD database file
#
# Track frame offsets:
#	150
#	15397
#	32427
#	48340
#	63657
#	84342
#	99537
#	120350
#	136105
#	153212
#	169552
#	183052
#	199230
#	216472
#	232500
#	247165
#	262352
#	278607
#	295212
#
# Disc length: 4090 seconds
#
# Revision: 0
# Processed by: cddbd v1.5.1PL0 Copyright (c) Steve Scherf et al.
# Submitted via: CDex 1.51
#
DISCID=fc0ff813
DTITLE=Various Artist - Hypertension - the art of music
DYEAR=1999
DGENRE=Blues
TTITLE0=Tonio K. - Fools Talk
TTITLE1=Billy Bremner - Cover it up
TTITLE2=Snowy White and The White Flames - Keep Out - We Are Toxic
TTITLE3=Colin Hay - Wash it all away
TTITLE4=Rick Vito - World on Fire
TTITLE5=JamieClarke's perferct - Victoria
TTITLE6=John Lee Sanders - Right Back
TTITLE7=Long John Baldry - Bad Attitude
TTITLE8=John Martyn - Jack The Lad
TTITLE9=Kathi McDonald - Save Your Breath
TTITLE10=Sally Barker - Good Woman
TTITLE11=Melanie - Estate Sale
TTITLE12=Phil Carmen - It's all over now Baby Blue
TTITLE13=Paul Millns feat Bert Jansch - Rise and Shine
TTITLE14=Pentangle - Colour my Paintbook
TTITLE15=Clover Leaf feat Phil Carmen- Born a rider
TTITLE16=Dave Kelly - You can't judge A Book by the cover
TTITLE17=Snowy White and The White Flames - Time waits for no man
TTITLE18=Bert Jansch- Get out of my life
EXTD=YEAR: 1999
EXTT0=
EXTT1=
EXTT2=
EXTT3=
EXTT4=
EXTT5=
EXTT6=
EXTT7=
EXTT8=
EXTT9=
EXTT10=
EXTT11=
EXTT12=
EXTT13=
EXTT14=
EXTT15=
EXTT16=
EXTT17=
EXTT18=
PLAYORDER=
